<svg width="260" height="117px" x="0px" y="0px" viewBox="0 0 372 117" xmlns="http://www.w3.org/2000/svg" version="1.1" style="transform: translate(0,0)"><rect x="0" y="0" width="372" height="117" style="fill:#ffffff;"></rect><g transform="translate(10, 10)" style="fill:#000000;"><rect x="85" y="0" width="4" height="80"></rect><rect x="91" y="0" width="2" height="80"></rect><rect x="97" y="0" width="2" height="80"></rect><rect x="107" y="0" width="4" height="80"></rect><rect x="117" y="0" width="2" height="80"></rect><rect x="125" y="0" width="2" height="80"></rect><rect x="129" y="0" width="2" height="80"></rect><rect x="135" y="0" width="6" height="80"></rect><rect x="143" y="0" width="4" height="80"></rect><rect x="151" y="0" width="2" height="80"></rect><rect x="155" y="0" width="6" height="80"></rect><rect x="163" y="0" width="8" height="80"></rect><rect x="173" y="0" width="4" height="80"></rect><rect x="179" y="0" width="4" height="80"></rect><rect x="187" y="0" width="4" height="80"></rect><rect x="195" y="0" width="2" height="80"></rect><rect x="203" y="0" width="4" height="80"></rect><rect x="211" y="0" width="2" height="80"></rect><rect x="217" y="0" width="8" height="80"></rect><rect x="227" y="0" width="2" height="80"></rect><rect x="231" y="0" width="6" height="80"></rect><rect x="239" y="0" width="4" height="80"></rect><rect x="249" y="0" width="6" height="80"></rect><rect x="257" y="0" width="2" height="80"></rect><rect x="261" y="0" width="4" height="80"></rect><text style="font: 15px Arial" text-anchor="start" x="0" y="97">Rainbow Impressora Ink 6-Pack and Photo Paper Kit</text></g></svg>