<svg width="260" height="117px" x="0px" y="0px" viewBox="0 0 255 117" xmlns="http://www.w3.org/2000/svg" version="1.1" style="transform: translate(0,0)"><rect x="0" y="0" width="255" height="117" style="fill:#ffffff;"></rect><g transform="translate(10, 10)" style="fill:#000000;"><rect x="27" y="0" width="4" height="80"></rect><rect x="33" y="0" width="2" height="80"></rect><rect x="39" y="0" width="2" height="80"></rect><rect x="49" y="0" width="6" height="80"></rect><rect x="57" y="0" width="6" height="80"></rect><rect x="65" y="0" width="4" height="80"></rect><rect x="71" y="0" width="2" height="80"></rect><rect x="77" y="0" width="6" height="80"></rect><rect x="87" y="0" width="4" height="80"></rect><rect x="93" y="0" width="2" height="80"></rect><rect x="97" y="0" width="6" height="80"></rect><rect x="105" y="0" width="8" height="80"></rect><rect x="115" y="0" width="4" height="80"></rect><rect x="121" y="0" width="4" height="80"></rect><rect x="129" y="0" width="4" height="80"></rect><rect x="137" y="0" width="4" height="80"></rect><rect x="145" y="0" width="4" height="80"></rect><rect x="151" y="0" width="4" height="80"></rect><rect x="159" y="0" width="4" height="80"></rect><rect x="167" y="0" width="2" height="80"></rect><rect x="171" y="0" width="2" height="80"></rect><rect x="181" y="0" width="4" height="80"></rect><rect x="191" y="0" width="6" height="80"></rect><rect x="199" y="0" width="2" height="80"></rect><rect x="203" y="0" width="4" height="80"></rect><text style="font: 15px Arial" text-anchor="start" x="0" y="97">PC - 8x Core DDR 32GB 2TB HDD</text></g></svg>