<svg width="260" height="117px" x="0px" y="0px" viewBox="0 0 209 117" xmlns="http://www.w3.org/2000/svg" version="1.1" style="transform: translate(0,0)"><rect x="0" y="0" width="209" height="117" style="fill:#ffffff;"></rect><g transform="translate(10, 10)" style="fill:#000000;"><rect x="4" y="0" width="4" height="80"></rect><rect x="10" y="0" width="2" height="80"></rect><rect x="16" y="0" width="2" height="80"></rect><rect x="26" y="0" width="2" height="80"></rect><rect x="34" y="0" width="2" height="80"></rect><rect x="42" y="0" width="4" height="80"></rect><rect x="48" y="0" width="2" height="80"></rect><rect x="54" y="0" width="6" height="80"></rect><rect x="62" y="0" width="4" height="80"></rect><rect x="70" y="0" width="2" height="80"></rect><rect x="74" y="0" width="6" height="80"></rect><rect x="82" y="0" width="8" height="80"></rect><rect x="92" y="0" width="4" height="80"></rect><rect x="98" y="0" width="4" height="80"></rect><rect x="106" y="0" width="4" height="80"></rect><rect x="114" y="0" width="2" height="80"></rect><rect x="122" y="0" width="4" height="80"></rect><rect x="130" y="0" width="2" height="80"></rect><rect x="136" y="0" width="2" height="80"></rect><rect x="140" y="0" width="8" height="80"></rect><rect x="154" y="0" width="2" height="80"></rect><rect x="158" y="0" width="4" height="80"></rect><rect x="168" y="0" width="6" height="80"></rect><rect x="176" y="0" width="2" height="80"></rect><rect x="180" y="0" width="4" height="80"></rect><text style="font: 15px Arial" text-anchor="start" x="0" y="97">Computer Monitor 24" HDMI</text></g></svg>