<svg width="260" height="117px" x="0px" y="0px" viewBox="0 0 205 117" xmlns="http://www.w3.org/2000/svg" version="1.1" style="transform: translate(0,0)"><rect x="0" y="0" width="205" height="117" style="fill:#ffffff;"></rect><g transform="translate(10, 10)" style="fill:#000000;"><rect x="2" y="0" width="4" height="80"></rect><rect x="8" y="0" width="2" height="80"></rect><rect x="14" y="0" width="2" height="80"></rect><rect x="24" y="0" width="2" height="80"></rect><rect x="28" y="0" width="2" height="80"></rect><rect x="36" y="0" width="4" height="80"></rect><rect x="46" y="0" width="2" height="80"></rect><rect x="52" y="0" width="6" height="80"></rect><rect x="60" y="0" width="4" height="80"></rect><rect x="68" y="0" width="2" height="80"></rect><rect x="72" y="0" width="6" height="80"></rect><rect x="80" y="0" width="8" height="80"></rect><rect x="90" y="0" width="4" height="80"></rect><rect x="96" y="0" width="4" height="80"></rect><rect x="104" y="0" width="4" height="80"></rect><rect x="112" y="0" width="2" height="80"></rect><rect x="118" y="0" width="4" height="80"></rect><rect x="126" y="0" width="2" height="80"></rect><rect x="134" y="0" width="2" height="80"></rect><rect x="140" y="0" width="8" height="80"></rect><rect x="150" y="0" width="2" height="80"></rect><rect x="156" y="0" width="4" height="80"></rect><rect x="166" y="0" width="6" height="80"></rect><rect x="174" y="0" width="2" height="80"></rect><rect x="178" y="0" width="4" height="80"></rect><text style="font: 15px Arial" text-anchor="start" x="0" y="97">Rainbow 1200 Laser Series</text></g></svg>