<svg width="260" height="117px" x="0px" y="0px" viewBox="0 0 289 117" xmlns="http://www.w3.org/2000/svg" version="1.1" style="transform: translate(0,0)"><rect x="0" y="0" width="289" height="117" style="fill:#ffffff;"></rect><g transform="translate(10, 10)" style="fill:#000000;"><rect x="44" y="0" width="4" height="80"></rect><rect x="50" y="0" width="2" height="80"></rect><rect x="56" y="0" width="2" height="80"></rect><rect x="66" y="0" width="4" height="80"></rect><rect x="76" y="0" width="2" height="80"></rect><rect x="84" y="0" width="2" height="80"></rect><rect x="88" y="0" width="2" height="80"></rect><rect x="94" y="0" width="6" height="80"></rect><rect x="102" y="0" width="4" height="80"></rect><rect x="110" y="0" width="2" height="80"></rect><rect x="114" y="0" width="6" height="80"></rect><rect x="122" y="0" width="8" height="80"></rect><rect x="132" y="0" width="4" height="80"></rect><rect x="138" y="0" width="4" height="80"></rect><rect x="146" y="0" width="4" height="80"></rect><rect x="154" y="0" width="2" height="80"></rect><rect x="160" y="0" width="4" height="80"></rect><rect x="170" y="0" width="2" height="80"></rect><rect x="176" y="0" width="8" height="80"></rect><rect x="186" y="0" width="2" height="80"></rect><rect x="190" y="0" width="2" height="80"></rect><rect x="198" y="0" width="4" height="80"></rect><rect x="208" y="0" width="6" height="80"></rect><rect x="216" y="0" width="2" height="80"></rect><rect x="220" y="0" width="4" height="80"></rect><text style="font: 15px Arial" text-anchor="start" x="0" y="97">Rainbow Impressora 9.5 Inkjet Cartridge</text></g></svg>