<svg width="260" height="117px" x="0px" y="0px" viewBox="0 0 234 117" xmlns="http://www.w3.org/2000/svg" version="1.1" style="transform: translate(0,0)"><rect x="0" y="0" width="234" height="117" style="fill:#ffffff;"></rect><g transform="translate(10, 10)" style="fill:#000000;"><rect x="16" y="0" width="4" height="80"></rect><rect x="22" y="0" width="2" height="80"></rect><rect x="28" y="0" width="2" height="80"></rect><rect x="38" y="0" width="2" height="80"></rect><rect x="42" y="0" width="2" height="80"></rect><rect x="50" y="0" width="4" height="80"></rect><rect x="60" y="0" width="2" height="80"></rect><rect x="66" y="0" width="6" height="80"></rect><rect x="74" y="0" width="4" height="80"></rect><rect x="82" y="0" width="2" height="80"></rect><rect x="86" y="0" width="6" height="80"></rect><rect x="94" y="0" width="8" height="80"></rect><rect x="104" y="0" width="4" height="80"></rect><rect x="110" y="0" width="4" height="80"></rect><rect x="118" y="0" width="4" height="80"></rect><rect x="126" y="0" width="2" height="80"></rect><rect x="132" y="0" width="2" height="80"></rect><rect x="138" y="0" width="4" height="80"></rect><rect x="148" y="0" width="2" height="80"></rect><rect x="152" y="0" width="4" height="80"></rect><rect x="160" y="0" width="2" height="80"></rect><rect x="170" y="0" width="4" height="80"></rect><rect x="180" y="0" width="6" height="80"></rect><rect x="188" y="0" width="2" height="80"></rect><rect x="192" y="0" width="4" height="80"></rect><text style="font: 15px Arial" text-anchor="start" x="0" y="97">J.B. Impressora Officeprint 1186</text></g></svg>