<svg width="260" height="117px" x="0px" y="0px" viewBox="0 0 235 117" xmlns="http://www.w3.org/2000/svg" version="1.1" style="transform: translate(0,0)"><rect x="0" y="0" width="235" height="117" style="fill:#ffffff;"></rect><g transform="translate(10, 10)" style="fill:#000000;"><rect x="17" y="0" width="4" height="80"></rect><rect x="23" y="0" width="2" height="80"></rect><rect x="29" y="0" width="2" height="80"></rect><rect x="39" y="0" width="2" height="80"></rect><rect x="43" y="0" width="2" height="80"></rect><rect x="51" y="0" width="4" height="80"></rect><rect x="61" y="0" width="2" height="80"></rect><rect x="67" y="0" width="6" height="80"></rect><rect x="75" y="0" width="4" height="80"></rect><rect x="83" y="0" width="2" height="80"></rect><rect x="87" y="0" width="6" height="80"></rect><rect x="95" y="0" width="8" height="80"></rect><rect x="105" y="0" width="4" height="80"></rect><rect x="111" y="0" width="4" height="80"></rect><rect x="119" y="0" width="4" height="80"></rect><rect x="127" y="0" width="4" height="80"></rect><rect x="135" y="0" width="4" height="80"></rect><rect x="141" y="0" width="4" height="80"></rect><rect x="149" y="0" width="6" height="80"></rect><rect x="161" y="0" width="4" height="80"></rect><rect x="167" y="0" width="2" height="80"></rect><rect x="171" y="0" width="4" height="80"></rect><rect x="181" y="0" width="6" height="80"></rect><rect x="189" y="0" width="2" height="80"></rect><rect x="193" y="0" width="4" height="80"></rect><text style="font: 15px Arial" text-anchor="start" x="0" y="97">J.B. Impressora Officeprint 1420</text></g></svg>