<svg width="260" height="117px" x="0px" y="0px" viewBox="0 0 200 117" xmlns="http://www.w3.org/2000/svg" version="1.1" style="transform: translate(0,0)"><rect x="0" y="0" width="200" height="117" style="fill:#ffffff;"></rect><g transform="translate(10, 10)" style="fill:#000000;"><rect x="0" y="0" width="4" height="80"></rect><rect x="6" y="0" width="2" height="80"></rect><rect x="12" y="0" width="2" height="80"></rect><rect x="22" y="0" width="2" height="80"></rect><rect x="26" y="0" width="4" height="80"></rect><rect x="36" y="0" width="2" height="80"></rect><rect x="44" y="0" width="2" height="80"></rect><rect x="50" y="0" width="6" height="80"></rect><rect x="58" y="0" width="4" height="80"></rect><rect x="66" y="0" width="2" height="80"></rect><rect x="70" y="0" width="6" height="80"></rect><rect x="78" y="0" width="8" height="80"></rect><rect x="88" y="0" width="4" height="80"></rect><rect x="94" y="0" width="4" height="80"></rect><rect x="102" y="0" width="4" height="80"></rect><rect x="110" y="0" width="4" height="80"></rect><rect x="118" y="0" width="4" height="80"></rect><rect x="126" y="0" width="4" height="80"></rect><rect x="132" y="0" width="2" height="80"></rect><rect x="142" y="0" width="2" height="80"></rect><rect x="146" y="0" width="4" height="80"></rect><rect x="154" y="0" width="4" height="80"></rect><rect x="164" y="0" width="6" height="80"></rect><rect x="172" y="0" width="2" height="80"></rect><rect x="176" y="0" width="4" height="80"></rect><text style="font: 15px Arial" text-anchor="middle" x="90" y="97">Portable Hard Disk 2TB</text></g></svg>