<svg width="260" height="117px" x="0px" y="0px" viewBox="0 0 232 117" xmlns="http://www.w3.org/2000/svg" version="1.1" style="transform: translate(0,0)"><rect x="0" y="0" width="232" height="117" style="fill:#ffffff;"></rect><g transform="translate(10, 10)" style="fill:#000000;"><rect x="15" y="0" width="4" height="80"></rect><rect x="21" y="0" width="2" height="80"></rect><rect x="27" y="0" width="2" height="80"></rect><rect x="37" y="0" width="2" height="80"></rect><rect x="41" y="0" width="2" height="80"></rect><rect x="49" y="0" width="4" height="80"></rect><rect x="59" y="0" width="2" height="80"></rect><rect x="65" y="0" width="6" height="80"></rect><rect x="73" y="0" width="4" height="80"></rect><rect x="81" y="0" width="2" height="80"></rect><rect x="85" y="0" width="6" height="80"></rect><rect x="93" y="0" width="8" height="80"></rect><rect x="103" y="0" width="4" height="80"></rect><rect x="109" y="0" width="4" height="80"></rect><rect x="117" y="0" width="4" height="80"></rect><rect x="125" y="0" width="4" height="80"></rect><rect x="133" y="0" width="4" height="80"></rect><rect x="141" y="0" width="4" height="80"></rect><rect x="147" y="0" width="2" height="80"></rect><rect x="151" y="0" width="2" height="80"></rect><rect x="161" y="0" width="4" height="80"></rect><rect x="169" y="0" width="4" height="80"></rect><rect x="179" y="0" width="6" height="80"></rect><rect x="187" y="0" width="2" height="80"></rect><rect x="191" y="0" width="4" height="80"></rect><text style="font: 15px Arial" text-anchor="start" x="0" y="97">J.B. Impressora Officeprint 1111</text></g></svg>