<svg width="260" height="117px" x="0px" y="0px" viewBox="0 0 266 117" xmlns="http://www.w3.org/2000/svg" version="1.1" style="transform: translate(0,0)"><rect x="0" y="0" width="266" height="117" style="fill:#ffffff;"></rect><g transform="translate(10, 10)" style="fill:#000000;"><rect x="0" y="0" width="4" height="80"></rect><rect x="6" y="0" width="2" height="80"></rect><rect x="12" y="0" width="2" height="80"></rect><rect x="22" y="0" width="2" height="80"></rect><rect x="30" y="0" width="4" height="80"></rect><rect x="36" y="0" width="6" height="80"></rect><rect x="44" y="0" width="2" height="80"></rect><rect x="48" y="0" width="6" height="80"></rect><rect x="56" y="0" width="4" height="80"></rect><rect x="66" y="0" width="2" height="80"></rect><rect x="70" y="0" width="6" height="80"></rect><rect x="78" y="0" width="8" height="80"></rect><rect x="88" y="0" width="4" height="80"></rect><rect x="98" y="0" width="2" height="80"></rect><rect x="102" y="0" width="2" height="80"></rect><rect x="110" y="0" width="6" height="80"></rect><rect x="120" y="0" width="4" height="80"></rect><rect x="128" y="0" width="2" height="80"></rect><rect x="132" y="0" width="6" height="80"></rect><rect x="140" y="0" width="2" height="80"></rect><rect x="144" y="0" width="8" height="80"></rect><rect x="154" y="0" width="4" height="80"></rect><rect x="160" y="0" width="6" height="80"></rect><rect x="168" y="0" width="2" height="80"></rect><rect x="176" y="0" width="2" height="80"></rect><rect x="184" y="0" width="2" height="80"></rect><rect x="188" y="0" width="4" height="80"></rect><rect x="198" y="0" width="2" height="80"></rect><rect x="202" y="0" width="6" height="80"></rect><rect x="212" y="0" width="4" height="80"></rect><rect x="220" y="0" width="4" height="80"></rect><rect x="230" y="0" width="6" height="80"></rect><rect x="238" y="0" width="2" height="80"></rect><rect x="242" y="0" width="4" height="80"></rect><text style="font: 15px Arial" text-anchor="middle" x="123" y="97">LeMon 4029 System Board</text></g></svg>