<svg width="260" height="117px" x="0px" y="0px" viewBox="0 0 301 117" xmlns="http://www.w3.org/2000/svg" version="1.1" style="transform: translate(0,0)"><rect x="0" y="0" width="301" height="117" style="fill:#ffffff;"></rect><g transform="translate(10, 10)" style="fill:#000000;"><rect x="50" y="0" width="4" height="80"></rect><rect x="56" y="0" width="2" height="80"></rect><rect x="62" y="0" width="2" height="80"></rect><rect x="72" y="0" width="6" height="80"></rect><rect x="80" y="0" width="6" height="80"></rect><rect x="88" y="0" width="4" height="80"></rect><rect x="94" y="0" width="2" height="80"></rect><rect x="100" y="0" width="6" height="80"></rect><rect x="110" y="0" width="4" height="80"></rect><rect x="116" y="0" width="2" height="80"></rect><rect x="120" y="0" width="6" height="80"></rect><rect x="128" y="0" width="8" height="80"></rect><rect x="138" y="0" width="4" height="80"></rect><rect x="144" y="0" width="4" height="80"></rect><rect x="152" y="0" width="4" height="80"></rect><rect x="160" y="0" width="4" height="80"></rect><rect x="168" y="0" width="4" height="80"></rect><rect x="176" y="0" width="4" height="80"></rect><rect x="182" y="0" width="2" height="80"></rect><rect x="188" y="0" width="2" height="80"></rect><rect x="192" y="0" width="8" height="80"></rect><rect x="204" y="0" width="4" height="80"></rect><rect x="214" y="0" width="6" height="80"></rect><rect x="222" y="0" width="2" height="80"></rect><rect x="226" y="0" width="4" height="80"></rect><text style="font: 15px Arial" text-anchor="start" x="0" y="97">PC - 12x Core DDR 64GB 5x150 GB SSD</text></g></svg>