<svg width="260" height="117px" x="0px" y="0px" viewBox="0 0 280 117" xmlns="http://www.w3.org/2000/svg" version="1.1" style="transform: translate(0,0)"><rect x="0" y="0" width="280" height="117" style="fill:#ffffff;"></rect><g transform="translate(10, 10)" style="fill:#000000;"><rect x="6" y="0" width="4" height="80"></rect><rect x="12" y="0" width="2" height="80"></rect><rect x="18" y="0" width="2" height="80"></rect><rect x="28" y="0" width="2" height="80"></rect><rect x="36" y="0" width="4" height="80"></rect><rect x="42" y="0" width="6" height="80"></rect><rect x="50" y="0" width="2" height="80"></rect><rect x="54" y="0" width="6" height="80"></rect><rect x="62" y="0" width="4" height="80"></rect><rect x="72" y="0" width="2" height="80"></rect><rect x="76" y="0" width="6" height="80"></rect><rect x="84" y="0" width="8" height="80"></rect><rect x="94" y="0" width="4" height="80"></rect><rect x="104" y="0" width="2" height="80"></rect><rect x="108" y="0" width="2" height="80"></rect><rect x="116" y="0" width="6" height="80"></rect><rect x="126" y="0" width="4" height="80"></rect><rect x="134" y="0" width="2" height="80"></rect><rect x="138" y="0" width="6" height="80"></rect><rect x="146" y="0" width="2" height="80"></rect><rect x="150" y="0" width="8" height="80"></rect><rect x="160" y="0" width="6" height="80"></rect><rect x="168" y="0" width="6" height="80"></rect><rect x="176" y="0" width="4" height="80"></rect><rect x="182" y="0" width="4" height="80"></rect><rect x="192" y="0" width="2" height="80"></rect><rect x="196" y="0" width="2" height="80"></rect><rect x="204" y="0" width="2" height="80"></rect><rect x="208" y="0" width="4" height="80"></rect><rect x="214" y="0" width="6" height="80"></rect><rect x="226" y="0" width="4" height="80"></rect><rect x="236" y="0" width="6" height="80"></rect><rect x="244" y="0" width="2" height="80"></rect><rect x="248" y="0" width="4" height="80"></rect><text style="font: 15px Arial" text-anchor="start" x="0" y="97">LeMon 4029 Rolamento da impressora</text></g></svg>