<svg width="260" height="117px" x="0px" y="0px" viewBox="0 0 208 117" xmlns="http://www.w3.org/2000/svg" version="1.1" style="transform: translate(0,0)"><rect x="0" y="0" width="208" height="117" style="fill:#ffffff;"></rect><g transform="translate(10, 10)" style="fill:#000000;"><rect x="3" y="0" width="4" height="80"></rect><rect x="9" y="0" width="2" height="80"></rect><rect x="15" y="0" width="2" height="80"></rect><rect x="25" y="0" width="2" height="80"></rect><rect x="33" y="0" width="2" height="80"></rect><rect x="41" y="0" width="4" height="80"></rect><rect x="47" y="0" width="2" height="80"></rect><rect x="53" y="0" width="6" height="80"></rect><rect x="61" y="0" width="4" height="80"></rect><rect x="69" y="0" width="2" height="80"></rect><rect x="73" y="0" width="6" height="80"></rect><rect x="81" y="0" width="8" height="80"></rect><rect x="91" y="0" width="4" height="80"></rect><rect x="97" y="0" width="4" height="80"></rect><rect x="105" y="0" width="4" height="80"></rect><rect x="113" y="0" width="2" height="80"></rect><rect x="119" y="0" width="2" height="80"></rect><rect x="127" y="0" width="4" height="80"></rect><rect x="135" y="0" width="4" height="80"></rect><rect x="143" y="0" width="2" height="80"></rect><rect x="147" y="0" width="2" height="80"></rect><rect x="157" y="0" width="4" height="80"></rect><rect x="167" y="0" width="6" height="80"></rect><rect x="175" y="0" width="2" height="80"></rect><rect x="179" y="0" width="4" height="80"></rect><text style="font: 15px Arial" text-anchor="start" x="0" y="97">CPU Torre com alimentação</text></g></svg>