<?xml version="1.0" encoding="UTF-8" standalone="no"?>
<!-- Created with Inkscape (http://www.inkscape.org/) -->

<svg
   width="211mm"
   height="299mm"
   viewBox="0 0 797.48034 1130.0788"
   version="1.1"
   id="svg1"
   xml:space="preserve"
   inkscape:version="1.4.3 (0d15f75, 2025-12-25)"
   sodipodi:docname="barcode03.svg"
   xmlns:inkscape="http://www.inkscape.org/namespaces/inkscape"
   xmlns:sodipodi="http://sodipodi.sourceforge.net/DTD/sodipodi-0.dtd"
   xmlns="http://www.w3.org/2000/svg"
   xmlns:svg="http://www.w3.org/2000/svg"><sodipodi:namedview
     id="namedview1"
     pagecolor="#ffffff"
     bordercolor="#000000"
     borderopacity="0.25"
     inkscape:showpageshadow="2"
     inkscape:pageopacity="0.0"
     inkscape:pagecheckerboard="0"
     inkscape:deskcolor="#d1d1d1"
     inkscape:document-units="mm"
     showguides="true"
     inkscape:zoom="0.82375294"
     inkscape:cx="309.55883"
     inkscape:cy="203.33767"
     inkscape:window-width="1920"
     inkscape:window-height="1009"
     inkscape:window-x="1912"
     inkscape:window-y="-8"
     inkscape:window-maximized="1"
     inkscape:current-layer="layer2"
     showgrid="false"><sodipodi:guide
       position="85.324732,1071.5564"
       orientation="0,-1"
       id="guide1"
       inkscape:locked="false" /><sodipodi:guide
       position="51.883337,66.347397"
       orientation="0,-1"
       id="guide2"
       inkscape:locked="false" /><sodipodi:guide
       position="26.428594,118.14186"
       orientation="1,0"
       id="guide3"
       inkscape:locked="false" /><sodipodi:guide
       position="770.94991,54.504583"
       orientation="1,0"
       id="guide4"
       inkscape:locked="false" /><sodipodi:guide
       position="62.518749,925.52717"
       orientation="0,-1"
       id="guide5"
       inkscape:locked="false" /><sodipodi:guide
       position="80.728094,784.10126"
       orientation="0,-1"
       id="guide6"
       inkscape:locked="false" /><sodipodi:guide
       position="98.937438,635.39162"
       orientation="0,-1"
       id="guide7"
       inkscape:locked="false" /><sodipodi:guide
       position="89.832766,490.32385"
       orientation="0,-1"
       id="guide8"
       inkscape:locked="false" /><sodipodi:guide
       position="153.56547,348.29096"
       orientation="0,-1"
       id="guide9"
       inkscape:locked="false" /><sodipodi:guide
       position="154.17245,202.00923"
       orientation="0,-1"
       id="guide10"
       inkscape:locked="false" /><sodipodi:guide
       position="268.24898,868.26781"
       orientation="1,0"
       id="guide11"
       inkscape:locked="false" /><sodipodi:guide
       position="280.26653,832.64434"
       orientation="1,0"
       id="guide12"
       inkscape:locked="false" /><sodipodi:guide
       position="517.18403,806.89244"
       orientation="1,0"
       id="guide13"
       inkscape:locked="false" /><sodipodi:guide
       position="528.34319,809.89683"
       orientation="1,0"
       id="guide14"
       inkscape:locked="false" /></sodipodi:namedview><defs
     id="defs1"><rect
       x="-49.772205"
       y="156.60035"
       width="222.15399"
       height="287.70762"
       id="rect1" /><rect
       x="118.96771"
       y="167.52596"
       width="84.976935"
       height="21.851212"
       id="rect114" /><rect
       x="28.83146"
       y="131.10727"
       width="236.41797"
       height="71.016438"
       id="rect14" /><rect
       x="28.831461"
       y="131.10727"
       width="236.41797"
       height="71.016441"
       id="rect14-2" /><rect
       x="28.83146"
       y="131.10727"
       width="236.41797"
       height="71.016438"
       id="rect17" /><rect
       x="28.83146"
       y="131.10727"
       width="236.41797"
       height="71.016438"
       id="rect19" /><rect
       x="28.83146"
       y="131.10727"
       width="236.41797"
       height="71.016438"
       id="rect25" /><rect
       x="28.83146"
       y="131.10727"
       width="236.41797"
       height="71.016438"
       id="rect26" /><rect
       x="28.83146"
       y="131.10727"
       width="236.41797"
       height="71.016438"
       id="rect27" /><rect
       x="28.83146"
       y="131.10727"
       width="236.41797"
       height="71.016438"
       id="rect79" /><rect
       x="28.83146"
       y="131.10727"
       width="236.41797"
       height="71.016438"
       id="rect80" /><rect
       x="28.83146"
       y="131.10727"
       width="236.41797"
       height="71.016438"
       id="rect81" /><rect
       x="28.83146"
       y="131.10727"
       width="236.41797"
       height="71.016438"
       id="rect98" /><rect
       x="28.83146"
       y="131.10727"
       width="236.41797"
       height="71.016438"
       id="rect99" /><rect
       x="28.83146"
       y="131.10727"
       width="236.41797"
       height="71.016438"
       id="rect100" /><rect
       x="28.83146"
       y="131.10727"
       width="236.41797"
       height="71.016438"
       id="rect101" /><rect
       x="28.83146"
       y="131.10727"
       width="236.41797"
       height="71.016438"
       id="rect102" /><rect
       x="28.83146"
       y="131.10727"
       width="236.41797"
       height="71.016438"
       id="rect103" /><rect
       x="28.83146"
       y="131.10727"
       width="236.41797"
       height="71.016438"
       id="rect104" /><rect
       x="28.83146"
       y="131.10727"
       width="236.41797"
       height="71.016438"
       id="rect105" /><rect
       x="28.83146"
       y="131.10727"
       width="236.41797"
       height="71.016438"
       id="rect106" /><rect
       x="28.83146"
       y="131.10727"
       width="236.41797"
       height="71.016438"
       id="rect111" /><rect
       x="28.83146"
       y="131.10727"
       width="236.41797"
       height="71.016438"
       id="rect112" /><rect
       x="28.83146"
       y="131.10727"
       width="236.41797"
       height="71.016438"
       id="rect113" /></defs><g
     inkscape:groupmode="layer"
     id="layer2"
     inkscape:label="code128"><g
       id="g160"
       transform="translate(531.88526,504.88644)"><rect
         x="0"
         y="0"
         width="235"
         height="117"
         style="fill:#ffffff"
         id="rect1-0" /><g
         transform="translate(10,10)"
         style="fill:#000000"
         id="g26"><rect
           x="17"
           y="0"
           width="4"
           height="80"
           id="rect2" /><rect
           x="23"
           y="0"
           width="2"
           height="80"
           id="rect3" /><rect
           x="29"
           y="0"
           width="2"
           height="80"
           id="rect4" /><rect
           x="39"
           y="0"
           width="2"
           height="80"
           id="rect5" /><rect
           x="43"
           y="0"
           width="2"
           height="80"
           id="rect6" /><rect
           x="51"
           y="0"
           width="4"
           height="80"
           id="rect7" /><rect
           x="61"
           y="0"
           width="2"
           height="80"
           id="rect8" /><rect
           x="67"
           y="0"
           width="6"
           height="80"
           id="rect9" /><rect
           x="75"
           y="0"
           width="4"
           height="80"
           id="rect10" /><rect
           x="83"
           y="0"
           width="2"
           height="80"
           id="rect11" /><rect
           x="87"
           y="0"
           width="6"
           height="80"
           id="rect12" /><rect
           x="95"
           y="0"
           width="8"
           height="80"
           id="rect13" /><rect
           x="105"
           y="0"
           width="4"
           height="80"
           id="rect14-9" /><rect
           x="111"
           y="0"
           width="4"
           height="80"
           id="rect15" /><rect
           x="119"
           y="0"
           width="4"
           height="80"
           id="rect16" /><rect
           x="127"
           y="0"
           width="4"
           height="80"
           id="rect17-5" /><rect
           x="135"
           y="0"
           width="4"
           height="80"
           id="rect18" /><rect
           x="141"
           y="0"
           width="4"
           height="80"
           id="rect19-6" /><rect
           x="149"
           y="0"
           width="6"
           height="80"
           id="rect20" /><rect
           x="161"
           y="0"
           width="4"
           height="80"
           id="rect21" /><rect
           x="167"
           y="0"
           width="2"
           height="80"
           id="rect22" /><rect
           x="171"
           y="0"
           width="4"
           height="80"
           id="rect23" /><rect
           x="181"
           y="0"
           width="6"
           height="80"
           id="rect24" /><rect
           x="189"
           y="0"
           width="2"
           height="80"
           id="rect25-5" /><rect
           x="193"
           y="0"
           width="4"
           height="80"
           id="rect26-2" /><text
           style="font-style:normal;font-variant:normal;font-weight:normal;font-stretch:normal;font-size:15px;line-height:normal;font-family:Arial"
           text-anchor="start"
           x="0"
           y="97"
           id="text26">J.B. Impressora Officeprint 1420</text></g></g><g
       id="g161"
       transform="translate(283.31026,507.31435)"><rect
         x="0"
         y="0"
         width="232"
         height="117"
         style="fill:#ffffff"
         id="rect1-4" /><g
         transform="translate(10,10)"
         style="fill:#000000"
         id="g26-8"><rect
           x="15"
           y="0"
           width="4"
           height="80"
           id="rect2-7" /><rect
           x="21"
           y="0"
           width="2"
           height="80"
           id="rect3-0" /><rect
           x="27"
           y="0"
           width="2"
           height="80"
           id="rect4-8" /><rect
           x="37"
           y="0"
           width="2"
           height="80"
           id="rect5-3" /><rect
           x="41"
           y="0"
           width="2"
           height="80"
           id="rect6-8" /><rect
           x="49"
           y="0"
           width="4"
           height="80"
           id="rect7-7" /><rect
           x="59"
           y="0"
           width="2"
           height="80"
           id="rect8-1" /><rect
           x="65"
           y="0"
           width="6"
           height="80"
           id="rect9-8" /><rect
           x="73"
           y="0"
           width="4"
           height="80"
           id="rect10-2" /><rect
           x="81"
           y="0"
           width="2"
           height="80"
           id="rect11-7" /><rect
           x="85"
           y="0"
           width="6"
           height="80"
           id="rect12-5" /><rect
           x="93"
           y="0"
           width="8"
           height="80"
           id="rect13-6" /><rect
           x="103"
           y="0"
           width="4"
           height="80"
           id="rect14-0" /><rect
           x="109"
           y="0"
           width="4"
           height="80"
           id="rect15-2" /><rect
           x="117"
           y="0"
           width="4"
           height="80"
           id="rect16-4" /><rect
           x="125"
           y="0"
           width="4"
           height="80"
           id="rect17-2" /><rect
           x="133"
           y="0"
           width="4"
           height="80"
           id="rect18-7" /><rect
           x="141"
           y="0"
           width="4"
           height="80"
           id="rect19-63" /><rect
           x="147"
           y="0"
           width="2"
           height="80"
           id="rect20-6" /><rect
           x="151"
           y="0"
           width="2"
           height="80"
           id="rect21-8" /><rect
           x="161"
           y="0"
           width="4"
           height="80"
           id="rect22-6" /><rect
           x="169"
           y="0"
           width="4"
           height="80"
           id="rect23-4" /><rect
           x="179"
           y="0"
           width="6"
           height="80"
           id="rect24-5" /><rect
           x="187"
           y="0"
           width="2"
           height="80"
           id="rect25-3" /><rect
           x="191"
           y="0"
           width="4"
           height="80"
           id="rect26-0" /><text
           style="font-style:normal;font-variant:normal;font-weight:normal;font-stretch:normal;font-size:15px;line-height:normal;font-family:Arial"
           text-anchor="start"
           x="0"
           y="97"
           id="text26-8">J.B. Impressora Officeprint 1111</text></g></g><g
       id="g162"
       transform="translate(31.021313,508.5283)"><rect
         x="0"
         y="0"
         width="234"
         height="117"
         style="fill:#ffffff"
         id="rect1-6" /><g
         transform="translate(10,10)"
         style="fill:#000000"
         id="g26-9"><rect
           x="16"
           y="0"
           width="4"
           height="80"
           id="rect2-8" /><rect
           x="22"
           y="0"
           width="2"
           height="80"
           id="rect3-8" /><rect
           x="28"
           y="0"
           width="2"
           height="80"
           id="rect4-2" /><rect
           x="38"
           y="0"
           width="2"
           height="80"
           id="rect5-1" /><rect
           x="42"
           y="0"
           width="2"
           height="80"
           id="rect6-6" /><rect
           x="50"
           y="0"
           width="4"
           height="80"
           id="rect7-3" /><rect
           x="60"
           y="0"
           width="2"
           height="80"
           id="rect8-2" /><rect
           x="66"
           y="0"
           width="6"
           height="80"
           id="rect9-6" /><rect
           x="74"
           y="0"
           width="4"
           height="80"
           id="rect10-0" /><rect
           x="82"
           y="0"
           width="2"
           height="80"
           id="rect11-6" /><rect
           x="86"
           y="0"
           width="6"
           height="80"
           id="rect12-2" /><rect
           x="94"
           y="0"
           width="8"
           height="80"
           id="rect13-8" /><rect
           x="104"
           y="0"
           width="4"
           height="80"
           id="rect14-8" /><rect
           x="110"
           y="0"
           width="4"
           height="80"
           id="rect15-6" /><rect
           x="118"
           y="0"
           width="4"
           height="80"
           id="rect16-2" /><rect
           x="126"
           y="0"
           width="2"
           height="80"
           id="rect17-6" /><rect
           x="132"
           y="0"
           width="2"
           height="80"
           id="rect18-1" /><rect
           x="138"
           y="0"
           width="4"
           height="80"
           id="rect19-3" /><rect
           x="148"
           y="0"
           width="2"
           height="80"
           id="rect20-4" /><rect
           x="152"
           y="0"
           width="4"
           height="80"
           id="rect21-87" /><rect
           x="160"
           y="0"
           width="2"
           height="80"
           id="rect22-2" /><rect
           x="170"
           y="0"
           width="4"
           height="80"
           id="rect23-5" /><rect
           x="180"
           y="0"
           width="6"
           height="80"
           id="rect24-1" /><rect
           x="188"
           y="0"
           width="2"
           height="80"
           id="rect25-57" /><rect
           x="192"
           y="0"
           width="4"
           height="80"
           id="rect26-1" /><text
           style="font-style:normal;font-variant:normal;font-weight:normal;font-stretch:normal;font-size:15px;line-height:normal;font-family:Arial"
           text-anchor="start"
           x="0"
           y="97"
           id="text26-7">J.B. Impressora Officeprint 1186</text></g></g><g
       id="g163"
       transform="translate(549.38526,360.42564)"><rect
         x="0"
         y="0"
         width="200"
         height="117"
         style="fill:#ffffff"
         id="rect1-48" /><g
         transform="translate(10,10)"
         style="fill:#000000"
         id="g26-0"><rect
           x="0"
           y="0"
           width="4"
           height="80"
           id="rect2-4" /><rect
           x="6"
           y="0"
           width="2"
           height="80"
           id="rect3-6" /><rect
           x="12"
           y="0"
           width="2"
           height="80"
           id="rect4-4" /><rect
           x="22"
           y="0"
           width="2"
           height="80"
           id="rect5-15" /><rect
           x="26"
           y="0"
           width="2"
           height="80"
           id="rect6-64" /><rect
           x="34"
           y="0"
           width="4"
           height="80"
           id="rect7-5" /><rect
           x="44"
           y="0"
           width="2"
           height="80"
           id="rect8-6" /><rect
           x="50"
           y="0"
           width="6"
           height="80"
           id="rect9-5" /><rect
           x="58"
           y="0"
           width="4"
           height="80"
           id="rect10-04" /><rect
           x="66"
           y="0"
           width="2"
           height="80"
           id="rect11-9" /><rect
           x="70"
           y="0"
           width="6"
           height="80"
           id="rect12-21" /><rect
           x="78"
           y="0"
           width="8"
           height="80"
           id="rect13-7" /><rect
           x="88"
           y="0"
           width="4"
           height="80"
           id="rect14-7" /><rect
           x="94"
           y="0"
           width="4"
           height="80"
           id="rect15-7" /><rect
           x="102"
           y="0"
           width="4"
           height="80"
           id="rect16-7" /><rect
           x="110"
           y="0"
           width="2"
           height="80"
           id="rect17-63" /><rect
           x="116"
           y="0"
           width="2"
           height="80"
           id="rect18-5" /><rect
           x="124"
           y="0"
           width="4"
           height="80"
           id="rect19-2" /><rect
           x="132"
           y="0"
           width="2"
           height="80"
           id="rect20-1" /><rect
           x="142"
           y="0"
           width="4"
           height="80"
           id="rect21-7" /><rect
           x="150"
           y="0"
           width="2"
           height="80"
           id="rect22-9" /><rect
           x="154"
           y="0"
           width="4"
           height="80"
           id="rect23-6" /><rect
           x="164"
           y="0"
           width="6"
           height="80"
           id="rect24-15" /><rect
           x="172"
           y="0"
           width="2"
           height="80"
           id="rect25-6" /><rect
           x="176"
           y="0"
           width="4"
           height="80"
           id="rect26-9" /><text
           style="font-style:normal;font-variant:normal;font-weight:normal;font-stretch:normal;font-size:15px;line-height:normal;font-family:Arial"
           text-anchor="middle"
           x="90"
           y="97"
           id="text26-6">Rainbow Color Printer 5.0</text></g></g><g
       id="g164"
       transform="translate(299.31026,362.85355)"><rect
         x="0"
         y="0"
         width="200"
         height="117"
         style="fill:#ffffff"
         id="rect1-1" /><g
         transform="translate(10,10)"
         style="fill:#000000"
         id="g26-80"><rect
           x="0"
           y="0"
           width="4"
           height="80"
           id="rect2-47" /><rect
           x="6"
           y="0"
           width="2"
           height="80"
           id="rect3-5" /><rect
           x="12"
           y="0"
           width="2"
           height="80"
           id="rect4-7" /><rect
           x="22"
           y="0"
           width="2"
           height="80"
           id="rect5-35" /><rect
           x="26"
           y="0"
           width="2"
           height="80"
           id="rect6-7" /><rect
           x="34"
           y="0"
           width="4"
           height="80"
           id="rect7-4" /><rect
           x="44"
           y="0"
           width="2"
           height="80"
           id="rect8-0" /><rect
           x="50"
           y="0"
           width="6"
           height="80"
           id="rect9-58" /><rect
           x="58"
           y="0"
           width="4"
           height="80"
           id="rect10-4" /><rect
           x="66"
           y="0"
           width="2"
           height="80"
           id="rect11-3" /><rect
           x="70"
           y="0"
           width="6"
           height="80"
           id="rect12-1" /><rect
           x="78"
           y="0"
           width="8"
           height="80"
           id="rect13-63" /><rect
           x="88"
           y="0"
           width="4"
           height="80"
           id="rect14-80" /><rect
           x="94"
           y="0"
           width="4"
           height="80"
           id="rect15-1" /><rect
           x="102"
           y="0"
           width="4"
           height="80"
           id="rect16-0" /><rect
           x="110"
           y="0"
           width="2"
           height="80"
           id="rect17-3" /><rect
           x="118"
           y="0"
           width="2"
           height="80"
           id="rect18-3" /><rect
           x="124"
           y="0"
           width="4"
           height="80"
           id="rect19-9" /><rect
           x="132"
           y="0"
           width="2"
           height="80"
           id="rect20-2" /><rect
           x="140"
           y="0"
           width="8"
           height="80"
           id="rect21-3" /><rect
           x="150"
           y="0"
           width="2"
           height="80"
           id="rect22-7" /><rect
           x="154"
           y="0"
           width="4"
           height="80"
           id="rect23-8" /><rect
           x="164"
           y="0"
           width="6"
           height="80"
           id="rect24-9" /><rect
           x="172"
           y="0"
           width="2"
           height="80"
           id="rect25-37" /><rect
           x="176"
           y="0"
           width="4"
           height="80"
           id="rect26-03" /><text
           style="font-style:normal;font-variant:normal;font-weight:normal;font-stretch:normal;font-size:15px;line-height:normal;font-family:Arial"
           text-anchor="middle"
           x="90"
           y="97"
           id="text26-71">Rainbow Color Printer 7.5</text></g></g><g
       id="g165"
       transform="translate(47.949225,362.85355)"><rect
         x="0"
         y="0"
         width="205"
         height="117"
         style="fill:#ffffff"
         id="rect1-3" /><g
         transform="translate(10,10)"
         style="fill:#000000"
         id="g26-3"><rect
           x="2"
           y="0"
           width="4"
           height="80"
           id="rect2-0" /><rect
           x="8"
           y="0"
           width="2"
           height="80"
           id="rect3-4" /><rect
           x="14"
           y="0"
           width="2"
           height="80"
           id="rect4-9" /><rect
           x="24"
           y="0"
           width="2"
           height="80"
           id="rect5-8" /><rect
           x="28"
           y="0"
           width="2"
           height="80"
           id="rect6-3" /><rect
           x="36"
           y="0"
           width="4"
           height="80"
           id="rect7-8" /><rect
           x="46"
           y="0"
           width="2"
           height="80"
           id="rect8-7" /><rect
           x="52"
           y="0"
           width="6"
           height="80"
           id="rect9-0" /><rect
           x="60"
           y="0"
           width="4"
           height="80"
           id="rect10-8" /><rect
           x="68"
           y="0"
           width="2"
           height="80"
           id="rect11-4" /><rect
           x="72"
           y="0"
           width="6"
           height="80"
           id="rect12-28" /><rect
           x="80"
           y="0"
           width="8"
           height="80"
           id="rect13-64" /><rect
           x="90"
           y="0"
           width="4"
           height="80"
           id="rect14-86" /><rect
           x="96"
           y="0"
           width="4"
           height="80"
           id="rect15-75" /><rect
           x="104"
           y="0"
           width="4"
           height="80"
           id="rect16-77" /><rect
           x="112"
           y="0"
           width="2"
           height="80"
           id="rect17-1" /><rect
           x="118"
           y="0"
           width="4"
           height="80"
           id="rect18-50" /><rect
           x="126"
           y="0"
           width="2"
           height="80"
           id="rect19-0" /><rect
           x="134"
           y="0"
           width="2"
           height="80"
           id="rect20-5" /><rect
           x="140"
           y="0"
           width="8"
           height="80"
           id="rect21-89" /><rect
           x="150"
           y="0"
           width="2"
           height="80"
           id="rect22-8" /><rect
           x="156"
           y="0"
           width="4"
           height="80"
           id="rect23-2" /><rect
           x="166"
           y="0"
           width="6"
           height="80"
           id="rect24-8" /><rect
           x="174"
           y="0"
           width="2"
           height="80"
           id="rect25-7" /><rect
           x="178"
           y="0"
           width="4"
           height="80"
           id="rect26-6" /><text
           style="font-style:normal;font-variant:normal;font-weight:normal;font-stretch:normal;font-size:15px;line-height:normal;font-family:Arial"
           text-anchor="start"
           x="0"
           y="97"
           id="text26-3">Rainbow 1200 Laser Series</text></g></g><g
       id="g166"
       transform="translate(551.81317,219.60671)"><rect
         x="0"
         y="0"
         width="200"
         height="117"
         style="fill:#ffffff"
         id="rect1-5" /><g
         transform="translate(10,10)"
         style="fill:#000000"
         id="g26-801"><rect
           x="0"
           y="0"
           width="4"
           height="80"
           id="rect2-07" /><rect
           x="6"
           y="0"
           width="2"
           height="80"
           id="rect3-2" /><rect
           x="12"
           y="0"
           width="2"
           height="80"
           id="rect4-93" /><rect
           x="22"
           y="0"
           width="2"
           height="80"
           id="rect5-86" /><rect
           x="30"
           y="0"
           width="2"
           height="80"
           id="rect6-0" /><rect
           x="34"
           y="0"
           width="4"
           height="80"
           id="rect7-73" /><rect
           x="44"
           y="0"
           width="2"
           height="80"
           id="rect8-60" /><rect
           x="50"
           y="0"
           width="6"
           height="80"
           id="rect9-86" /><rect
           x="60"
           y="0"
           width="4"
           height="80"
           id="rect10-6" /><rect
           x="66"
           y="0"
           width="2"
           height="80"
           id="rect11-0" /><rect
           x="70"
           y="0"
           width="6"
           height="80"
           id="rect12-9" /><rect
           x="78"
           y="0"
           width="8"
           height="80"
           id="rect13-9" /><rect
           x="88"
           y="0"
           width="4"
           height="80"
           id="rect14-3" /><rect
           x="94"
           y="0"
           width="4"
           height="80"
           id="rect15-28" /><rect
           x="102"
           y="0"
           width="4"
           height="80"
           id="rect16-07" /><rect
           x="110"
           y="0"
           width="4"
           height="80"
           id="rect17-55" /><rect
           x="116"
           y="0"
           width="4"
           height="80"
           id="rect18-2" /><rect
           x="124"
           y="0"
           width="4"
           height="80"
           id="rect19-60" /><rect
           x="132"
           y="0"
           width="6"
           height="80"
           id="rect20-9" /><rect
           x="140"
           y="0"
           width="4"
           height="80"
           id="rect21-5" /><rect
           x="146"
           y="0"
           width="2"
           height="80"
           id="rect22-0" /><rect
           x="154"
           y="0"
           width="4"
           height="80"
           id="rect23-7" /><rect
           x="164"
           y="0"
           width="6"
           height="80"
           id="rect24-4" /><rect
           x="172"
           y="0"
           width="2"
           height="80"
           id="rect25-55" /><rect
           x="176"
           y="0"
           width="4"
           height="80"
           id="rect26-60" /><text
           style="font-style:normal;font-variant:normal;font-weight:normal;font-stretch:normal;font-size:15px;line-height:normal;font-family:Arial"
           text-anchor="middle"
           x="90"
           y="97"
           id="text26-89">Impressora de etiquetas</text></g></g><g
       id="g167"
       transform="translate(299.31026,220.82066)"><rect
         x="0"
         y="0"
         width="200"
         height="117"
         style="fill:#ffffff"
         id="rect1-03" /><g
         transform="translate(10,10)"
         style="fill:#000000"
         id="g26-7"><rect
           x="0"
           y="0"
           width="4"
           height="80"
           id="rect2-73" /><rect
           x="6"
           y="0"
           width="2"
           height="80"
           id="rect3-53" /><rect
           x="12"
           y="0"
           width="2"
           height="80"
           id="rect4-46" /><rect
           x="22"
           y="0"
           width="2"
           height="80"
           id="rect5-4" /><rect
           x="30"
           y="0"
           width="2"
           height="80"
           id="rect6-2" /><rect
           x="38"
           y="0"
           width="4"
           height="80"
           id="rect7-51" /><rect
           x="44"
           y="0"
           width="2"
           height="80"
           id="rect8-5" /><rect
           x="50"
           y="0"
           width="6"
           height="80"
           id="rect9-1" /><rect
           x="58"
           y="0"
           width="4"
           height="80"
           id="rect10-5" /><rect
           x="66"
           y="0"
           width="2"
           height="80"
           id="rect11-48" /><rect
           x="70"
           y="0"
           width="6"
           height="80"
           id="rect12-13" /><rect
           x="78"
           y="0"
           width="8"
           height="80"
           id="rect13-0" /><rect
           x="88"
           y="0"
           width="4"
           height="80"
           id="rect14-5" /><rect
           x="94"
           y="0"
           width="4"
           height="80"
           id="rect15-65" /><rect
           x="102"
           y="0"
           width="4"
           height="80"
           id="rect16-09" /><rect
           x="110"
           y="0"
           width="4"
           height="80"
           id="rect17-7" /><rect
           x="118"
           y="0"
           width="4"
           height="80"
           id="rect18-57" /><rect
           x="124"
           y="0"
           width="4"
           height="80"
           id="rect19-93" /><rect
           x="132"
           y="0"
           width="4"
           height="80"
           id="rect20-48" /><rect
           x="140"
           y="0"
           width="2"
           height="80"
           id="rect21-38" /><rect
           x="150"
           y="0"
           width="2"
           height="80"
           id="rect22-60" /><rect
           x="154"
           y="0"
           width="4"
           height="80"
           id="rect23-79" /><rect
           x="164"
           y="0"
           width="6"
           height="80"
           id="rect24-6" /><rect
           x="172"
           y="0"
           width="2"
           height="80"
           id="rect25-557" /><rect
           x="176"
           y="0"
           width="4"
           height="80"
           id="rect26-3" /><text
           style="font-style:normal;font-variant:normal;font-weight:normal;font-stretch:normal;font-size:15px;line-height:normal;font-family:Arial"
           text-anchor="middle"
           x="90"
           y="97"
           id="text26-60">Motherboard BTX</text></g></g><g
       id="g168"
       transform="translate(49.235269,215.96484)"><rect
         x="0"
         y="0"
         width="200"
         height="117"
         style="fill:#ffffff"
         id="rect1-33" /><g
         transform="translate(10,10)"
         style="fill:#000000"
         id="g26-99"><rect
           x="0"
           y="0"
           width="4"
           height="80"
           id="rect2-3" /><rect
           x="6"
           y="0"
           width="2"
           height="80"
           id="rect3-01" /><rect
           x="12"
           y="0"
           width="2"
           height="80"
           id="rect4-1" /><rect
           x="22"
           y="0"
           width="2"
           height="80"
           id="rect5-83" /><rect
           x="30"
           y="0"
           width="2"
           height="80"
           id="rect6-88" /><rect
           x="38"
           y="0"
           width="4"
           height="80"
           id="rect7-2" /><rect
           x="44"
           y="0"
           width="2"
           height="80"
           id="rect8-08" /><rect
           x="50"
           y="0"
           width="6"
           height="80"
           id="rect9-3" /><rect
           x="58"
           y="0"
           width="4"
           height="80"
           id="rect10-60" /><rect
           x="66"
           y="0"
           width="2"
           height="80"
           id="rect11-8" /><rect
           x="70"
           y="0"
           width="6"
           height="80"
           id="rect12-51" /><rect
           x="78"
           y="0"
           width="8"
           height="80"
           id="rect13-5" /><rect
           x="88"
           y="0"
           width="4"
           height="80"
           id="rect14-96" /><rect
           x="94"
           y="0"
           width="4"
           height="80"
           id="rect15-3" /><rect
           x="102"
           y="0"
           width="4"
           height="80"
           id="rect16-6" /><rect
           x="110"
           y="0"
           width="4"
           height="80"
           id="rect17-9" /><rect
           x="118"
           y="0"
           width="4"
           height="80"
           id="rect18-4" /><rect
           x="126"
           y="0"
           width="4"
           height="80"
           id="rect19-4" /><rect
           x="132"
           y="0"
           width="2"
           height="80"
           id="rect20-99" /><rect
           x="138"
           y="0"
           width="2"
           height="80"
           id="rect21-78" /><rect
           x="148"
           y="0"
           width="4"
           height="80"
           id="rect22-1" /><rect
           x="154"
           y="0"
           width="4"
           height="80"
           id="rect23-52" /><rect
           x="164"
           y="0"
           width="6"
           height="80"
           id="rect24-3" /><rect
           x="172"
           y="0"
           width="2"
           height="80"
           id="rect25-0" /><rect
           x="176"
           y="0"
           width="4"
           height="80"
           id="rect26-7" /><text
           style="font-style:normal;font-variant:normal;font-weight:normal;font-stretch:normal;font-size:15px;line-height:normal;font-family:Arial"
           text-anchor="middle"
           x="90"
           y="97"
           id="text26-5">Motherboard MicroATX</text></g></g><g
       id="g169"
       transform="translate(550.59922,75.145909)"><rect
         x="0"
         y="0"
         width="200"
         height="117"
         style="fill:#ffffff"
         id="rect1-44" /><g
         transform="translate(10,10)"
         style="fill:#000000"
         id="g26-5"><rect
           x="0"
           y="0"
           width="4"
           height="80"
           id="rect2-32" /><rect
           x="6"
           y="0"
           width="2"
           height="80"
           id="rect3-07" /><rect
           x="12"
           y="0"
           width="2"
           height="80"
           id="rect4-75" /><rect
           x="22"
           y="0"
           width="2"
           height="80"
           id="rect5-2" /><rect
           x="30"
           y="0"
           width="2"
           height="80"
           id="rect6-66" /><rect
           x="38"
           y="0"
           width="4"
           height="80"
           id="rect7-0" /><rect
           x="44"
           y="0"
           width="2"
           height="80"
           id="rect8-14" /><rect
           x="50"
           y="0"
           width="6"
           height="80"
           id="rect9-11" /><rect
           x="58"
           y="0"
           width="4"
           height="80"
           id="rect10-86" /><rect
           x="66"
           y="0"
           width="2"
           height="80"
           id="rect11-5" /><rect
           x="70"
           y="0"
           width="6"
           height="80"
           id="rect12-6" /><rect
           x="78"
           y="0"
           width="8"
           height="80"
           id="rect13-94" /><rect
           x="88"
           y="0"
           width="4"
           height="80"
           id="rect14-6" /><rect
           x="94"
           y="0"
           width="4"
           height="80"
           id="rect15-22" /><rect
           x="102"
           y="0"
           width="4"
           height="80"
           id="rect16-21" /><rect
           x="110"
           y="0"
           width="2"
           height="80"
           id="rect17-0" /><rect
           x="116"
           y="0"
           width="2"
           height="80"
           id="rect18-508" /><rect
           x="122"
           y="0"
           width="4"
           height="80"
           id="rect19-97" /><rect
           x="132"
           y="0"
           width="2"
           height="80"
           id="rect20-7" /><rect
           x="138"
           y="0"
           width="4"
           height="80"
           id="rect21-82" /><rect
           x="144"
           y="0"
           width="2"
           height="80"
           id="rect22-14" /><rect
           x="154"
           y="0"
           width="4"
           height="80"
           id="rect23-3" /><rect
           x="164"
           y="0"
           width="6"
           height="80"
           id="rect24-80" /><rect
           x="172"
           y="0"
           width="2"
           height="80"
           id="rect25-78" /><rect
           x="176"
           y="0"
           width="4"
           height="80"
           id="rect26-79" /><text
           style="font-style:normal;font-variant:normal;font-weight:normal;font-stretch:normal;font-size:15px;line-height:normal;font-family:Arial"
           text-anchor="middle"
           x="90"
           y="97"
           id="text26-9">Quadcore CPU 3.4 GHz</text></g></g><g
       id="g170"
       transform="translate(296.52422,75.145909)"><rect
         x="0"
         y="0"
         width="208"
         height="117"
         style="fill:#ffffff"
         id="rect1-00" /><g
         transform="translate(10,10)"
         style="fill:#000000"
         id="g26-6"><rect
           x="3"
           y="0"
           width="4"
           height="80"
           id="rect2-08" /><rect
           x="9"
           y="0"
           width="2"
           height="80"
           id="rect3-1" /><rect
           x="15"
           y="0"
           width="2"
           height="80"
           id="rect4-0" /><rect
           x="25"
           y="0"
           width="2"
           height="80"
           id="rect5-6" /><rect
           x="33"
           y="0"
           width="2"
           height="80"
           id="rect6-04" /><rect
           x="41"
           y="0"
           width="4"
           height="80"
           id="rect7-87" /><rect
           x="47"
           y="0"
           width="2"
           height="80"
           id="rect8-3" /><rect
           x="53"
           y="0"
           width="6"
           height="80"
           id="rect9-59" /><rect
           x="61"
           y="0"
           width="4"
           height="80"
           id="rect10-7" /><rect
           x="69"
           y="0"
           width="2"
           height="80"
           id="rect11-86" /><rect
           x="73"
           y="0"
           width="6"
           height="80"
           id="rect12-4" /><rect
           x="81"
           y="0"
           width="8"
           height="80"
           id="rect13-86" /><rect
           x="91"
           y="0"
           width="4"
           height="80"
           id="rect14-53" /><rect
           x="97"
           y="0"
           width="4"
           height="80"
           id="rect15-31" /><rect
           x="105"
           y="0"
           width="4"
           height="80"
           id="rect16-8" /><rect
           x="113"
           y="0"
           width="2"
           height="80"
           id="rect17-639" /><rect
           x="119"
           y="0"
           width="2"
           height="80"
           id="rect18-73" /><rect
           x="127"
           y="0"
           width="4"
           height="80"
           id="rect19-1" /><rect
           x="135"
           y="0"
           width="4"
           height="80"
           id="rect20-75" /><rect
           x="143"
           y="0"
           width="2"
           height="80"
           id="rect21-2" /><rect
           x="147"
           y="0"
           width="2"
           height="80"
           id="rect22-5" /><rect
           x="157"
           y="0"
           width="4"
           height="80"
           id="rect23-0" /><rect
           x="167"
           y="0"
           width="6"
           height="80"
           id="rect24-2" /><rect
           x="175"
           y="0"
           width="2"
           height="80"
           id="rect25-1" /><rect
           x="179"
           y="0"
           width="4"
           height="80"
           id="rect26-5" /><text
           style="font-style:normal;font-variant:normal;font-weight:normal;font-stretch:normal;font-size:15px;line-height:normal;font-family:Arial"
           text-anchor="start"
           x="0"
           y="97"
           id="text26-0">CPU Torre com alimentação</text></g></g><g
       id="g171"
       transform="translate(48.021313,76.359865)"><rect
         x="0"
         y="0"
         width="200"
         height="117"
         style="fill:#ffffff"
         id="rect1-38" /><g
         transform="translate(10,10)"
         style="fill:#000000"
         id="g26-75"><rect
           x="0"
           y="0"
           width="4"
           height="80"
           id="rect2-324" /><rect
           x="6"
           y="0"
           width="2"
           height="80"
           id="rect3-9" /><rect
           x="12"
           y="0"
           width="2"
           height="80"
           id="rect4-08" /><rect
           x="22"
           y="0"
           width="2"
           height="80"
           id="rect5-5" /><rect
           x="30"
           y="0"
           width="2"
           height="80"
           id="rect6-33" /><rect
           x="38"
           y="0"
           width="4"
           height="80"
           id="rect7-75" /><rect
           x="44"
           y="0"
           width="2"
           height="80"
           id="rect8-05" /><rect
           x="50"
           y="0"
           width="6"
           height="80"
           id="rect9-02" /><rect
           x="58"
           y="0"
           width="4"
           height="80"
           id="rect10-81" /><rect
           x="66"
           y="0"
           width="2"
           height="80"
           id="rect11-36" /><rect
           x="70"
           y="0"
           width="6"
           height="80"
           id="rect12-3" /><rect
           x="78"
           y="0"
           width="8"
           height="80"
           id="rect13-1" /><rect
           x="88"
           y="0"
           width="4"
           height="80"
           id="rect14-860" /><rect
           x="94"
           y="0"
           width="4"
           height="80"
           id="rect15-9" /><rect
           x="102"
           y="0"
           width="4"
           height="80"
           id="rect16-772" /><rect
           x="110"
           y="0"
           width="2"
           height="80"
           id="rect17-8" /><rect
           x="118"
           y="0"
           width="2"
           height="80"
           id="rect18-9" /><rect
           x="124"
           y="0"
           width="4"
           height="80"
           id="rect19-23" /><rect
           x="132"
           y="0"
           width="2"
           height="80"
           id="rect20-8" /><rect
           x="138"
           y="0"
           width="2"
           height="80"
           id="rect21-9" /><rect
           x="142"
           y="0"
           width="8"
           height="80"
           id="rect22-86" /><rect
           x="154"
           y="0"
           width="4"
           height="80"
           id="rect23-02" /><rect
           x="164"
           y="0"
           width="6"
           height="80"
           id="rect24-57" /><rect
           x="172"
           y="0"
           width="2"
           height="80"
           id="rect25-74" /><rect
           x="176"
           y="0"
           width="4"
           height="80"
           id="rect26-4" /><text
           style="font-style:normal;font-variant:normal;font-weight:normal;font-stretch:normal;font-size:15px;line-height:normal;font-family:Arial"
           text-anchor="middle"
           x="90"
           y="97"
           id="text26-2">WLAN Card</text></g></g></g></svg>
